<?xml version="1.0" encoding="UTF-8"?>
<svg xmlns="http://www.w3.org/2000/svg" xmlns:xlink="http://www.w3.org/1999/xlink" viewBox="0 0 50 50" width="50px" height="50px">
<g id="surface2184183">
<path style=" stroke:none;fill-rule:nonzero;fill:rgb(100%,100%,100%);fill-opacity:1;" d="M 16 3 C 8.855469 3 3 8.855469 3 16 L 3 34 C 3 41.144531 8.855469 47 16 47 L 34 47 C 41.144531 47 47 41.144531 47 34 L 47 16 C 47 8.855469 41.144531 3 34 3 Z M 16 5 L 34 5 C 40.054688 5 45 9.945312 45 16 L 45 34 C 45 40.054688 40.054688 45 34 45 L 16 45 C 9.945312 45 5 40.054688 5 34 L 5 16 C 5 9.945312 9.945312 5 16 5 Z M 37 11 C 35.898438 11 35 11.898438 35 13 C 35 14.101562 35.898438 15 37 15 C 38.101562 15 39 14.101562 39 13 C 39 11.898438 38.101562 11 37 11 Z M 25 14 C 18.953125 14 14 18.953125 14 25 C 14 31.046875 18.953125 36 25 36 C 31.046875 36 36 31.046875 36 25 C 36 18.953125 31.046875 14 25 14 Z M 25 16 C 29.953125 16 34 20.046875 34 25 C 34 29.953125 29.953125 34 25 34 C 20.046875 34 16 29.953125 16 25 C 16 20.046875 20.046875 16 25 16 Z M 25 16 "/>
</g>
</svg>
